<?xml version="1.0" encoding="UTF-8"?>
<svg width="127px" height="102px" viewBox="0 0 127 102" version="1.1"
  xmlns="http://www.w3.org/2000/svg"
  xmlns:xlink="http://www.w3.org/1999/xlink">
  <defs>
    <linearGradient x1="98.6824484%" y1="50.2223998%" x2="1.31755164%" y2="50.2223998%" id="linearGradient-1">
      <stop stop-color="#BF14A2" offset="0%"></stop>
      <stop stop-color="#F73A1C" offset="100%"></stop>
    </linearGradient>
    <linearGradient x1="98.6824484%" y1="50.2223998%" x2="1.31755164%" y2="50.2223998%" id="linearGradient-2">
      <stop stop-color="#BF14A2" offset="0%"></stop>
      <stop stop-color="#F73A1C" offset="100%"></stop>
    </linearGradient>
    <linearGradient x1="98.6824484%" y1="50.2223998%" x2="1.31755164%" y2="50.2223998%" id="linearGradient-3">
      <stop stop-color="#BF14A2" offset="0%"></stop>
      <stop stop-color="#F73A1C" offset="100%"></stop>
    </linearGradient>
    <linearGradient x1="0%" y1="50.7055163%" x2="100%" y2="50.7055163%" id="linearGradient-4">
      <stop stop-color="#FF5500" offset="0%"></stop>
      <stop stop-color="#FF5500" offset="40.9877232%"></stop>
      <stop stop-color="#FF4530" offset="49.4339923%"></stop>
      <stop stop-color="#FF2000" offset="57.2365274%"></stop>
      <stop stop-color="#FF2000" offset="100%"></stop>
    </linearGradient>
    <polygon id="path-5" points="0 0.0752773639 27.6423673 0.0752773639 27.6423673 20.0253366 0 20.0253366"></polygon>
    <linearGradient x1="50%" y1="100%" x2="96.7673826%" y2="100%" id="linearGradient-7">
      <stop stop-color="#FFFFFF" offset="0%"></stop>
      <stop stop-color="#F4F4F4" offset="100%"></stop>
    </linearGradient>
  </defs>
  <g id="MM-Assets" stroke="none" stroke-width="1" fill="none" fill-rule="evenodd">
    <g id="Artboard" transform="translate(-224.000000, -525.000000)">
      <g id="login-with-cryptowallets" transform="translate(225.500000, 525.000000)">
        <text id="LOGIN-WITH-CRYPTO-WA" font-family="Poppins-Bold, Poppins" font-size="10" font-weight="bold" fill="#CC1D84">
          <tspan x="31.935" y="48">LOGIN WITH</tspan>
          <tspan x="17.925" y="63">CRYPTO WALLETS</tspan>
        </text>
        <path d="M15.8571429,8.5 L108.142857,8.5 C113.11342,8.5 117.142857,12.5294373 117.142857,17.5 L117.142857,91.3571429 L117.142857,91.3571429 L6.85714286,91.3571429 L6.85714286,17.5 C6.85714286,12.5294373 10.8865801,8.5 15.8571429,8.5 Z" id="Rectangle" stroke="url(#linearGradient-1)" stroke-width="3"></path>
        <rect id="Rectangle" stroke="url(#linearGradient-2)" stroke-width="3" fill-opacity="0.5" fill="url(#linearGradient-2)" x="0" y="91.3571429" width="124" height="9.14285714" rx="2"></rect>
        <rect id="Rectangle" stroke="url(#linearGradient-3)" stroke-width="3" x="12" y="14.2142857" width="99.4285714" height="72"></rect>
        <g id="Full-Color/logos/brave" transform="translate(83.000000, -0.000000)">
          <g id="Group-2" transform="translate(3.416667, 0.000000)">
            <path d="M35.6033931,13.2515417 L34.3149507,9.82120833 L35.2100654,7.85064583 C35.3250582,7.59695833 35.2697397,7.29928125 35.0706801,7.10239583 L32.6353584,4.68638542 C31.5703679,3.63063542 29.9813761,3.26761458 28.5500637,3.75448958 L27.8692539,3.98596875 L24.3123309,-1.24344979e-14 L19.0797069,-1.24344979e-14 L15.7634759,-1.24344979e-14 L11.2334218,-1.24344979e-14 L7.72198661,4.03422917 L7.05990666,3.80573958 C5.61552697,3.30733333 4.0073696,3.67419792 2.93540989,4.74660417 L0.456965843,7.20788542 C0.297979538,7.36547917 0.254421646,7.60208333 0.346764377,7.80409375 L1.28195231,9.84939583 L4.35578918e-05,13.2780208 L0.829821396,16.36925 L4.60890409,30.4591562 C5.04404743,32.0837812 6.0467501,33.5063958 7.44147379,34.4805729 C7.44147379,34.4805729 12.0298621,37.6538021 16.557705,40.5357604 C16.9558241,40.7894479 17.3722375,40.9748021 17.8191415,40.9681517 C18.2660455,40.9739479 18.6824589,40.7894479 19.0797069,40.5344792 C24.1650908,37.2660104 28.1885332,34.4677604 28.1885332,34.4677604 C29.5819502,33.491875 30.5829105,32.0675521 31.0163116,30.4425 L34.7775355,16.3470417 L35.6033931,13.2515417 Z" id="Fill-1" fill="url(#linearGradient-4)"></path>
            <g id="face" transform="translate(3.940725, 6.232000)">
              <g id="Group-5" transform="translate(0.000000, 0.026096)">
                <mask id="mask-6" fill="white">
                  <use xlink:href="#path-5"></use>
                </mask>
                <g id="Clip-4"></g>
              </g>
              <path d="M14.051733,18.9985018 C14.1023361,18.9985018 14.5804479,19.1749156 15.1135252,19.3914818 L15.1135252,19.3914818 L15.6082139,19.5922433 C16.1412911,19.8083824 16.998926,20.194528 17.5132452,20.4503921 L17.5132452,20.4503921 L18.9728823,21.1765509 C19.4872015,21.4319879 19.5242813,21.9103984 19.0548942,22.2393056 L19.0548942,22.2393056 L17.809884,23.1115505 C17.3404968,23.4404577 16.6023898,24.011133 16.1700825,24.3810469 C15.737339,24.7509607 15.031077,25.3545268 14.6000784,25.7231591 C14.1690798,26.0917915 13.4706701,26.0935001 13.0479599,25.7278578 C12.6248135,25.3617883 11.9246588,24.7624938 11.491479,24.3964243 C11.0587355,24.0299277 10.3188836,23.4635239 9.84731524,23.1380339 L9.84731524,23.1380339 L8.60666738,22.2794579 C8.13509905,21.9531137 8.16868902,21.4725674 8.68039083,21.2115774 L8.68039083,21.2115774 L10.1478801,20.4632067 C10.6595819,20.2017896 11.5141632,19.8105181 12.0472404,19.5943791 L12.0472404,19.5943791 L12.5419291,19.3927633 C13.0745701,19.1761971 13.5522457,18.9985018 13.603285,18.9985018 L13.603285,18.9985018 Z M14.2506554,0.101116787 C14.7196064,0.207050537 15.5528122,0.436004126 16.1020301,0.609855079 L16.1020301,0.609855079 L17.3457316,1.00283512 C17.8949495,1.17668607 18.5056763,1.28859995 18.7028538,1.25186486 C18.9004675,1.21512977 19.5251538,1.09680861 20.091821,0.9895934 L20.091821,0.9895934 L21.8193054,0.663249106 C22.3859726,0.556033899 22.8514337,0.470603456 22.8845874,0.473166369 C22.8998556,0.470603456 23.2065277,0.828984166 23.5668565,1.27108671 L23.5668565,1.27108671 L24.7093518,2.67086453 C25.0696806,3.11211277 25.6289319,3.85578478 25.9530533,4.32394361 L25.9530533,4.32394361 L26.7326025,5.45077116 C27.0562877,5.91850284 27.5618822,6.76981721 27.593291,6.96331717 C27.6255723,7.15681712 27.6469477,7.48828724 27.6417129,7.69972759 L27.6417129,7.69972759 L27.5828214,7.88340304 L27.4890312,8.2127374 C27.2386332,8.51857839 26.7107908,9.10548554 26.3155633,9.51768743 L26.3155633,9.51768743 L22.6826113,13.3039647 C22.2873839,13.7157394 22.0643802,14.2322061 22.2899129,14.7524775 L22.2899129,14.7524775 L22.7798914,15.9365038 C23.0049878,16.4563481 23.0272357,17.3166326 22.8113002,17.8941424 C22.5918748,18.4819039 22.2140966,19.001321 21.7189717,19.3972911 L21.7189717,19.3972911 L21.3398849,19.700142 C20.8927456,20.0576684 20.1005457,20.1516419 19.5792467,19.9085923 L19.5792467,19.9085923 L17.9058553,19.1303209 C17.3849926,18.8881256 16.6076246,18.3802416 16.178371,18.0017848 L16.178371,18.0017848 L14.5952799,16.6067056 C14.2864266,16.3341825 14.2689773,15.8660237 14.5564551,15.5729973 L14.5564551,15.5729973 L18.4118861,13.0228985 C18.8899979,12.7068059 19.1431017,12.1220213 18.8713283,11.6235346 L18.8713283,11.6235346 L17.5005945,9.17852857 C17.228821,8.67961478 17.1201989,8.01710169 17.2589212,7.70570772 C17.3980796,7.39431375 17.9529685,6.97570458 18.4930255,6.77537019 L18.4930255,6.77537019 L22.9684326,5.14535733 C23.5080534,4.94502294 23.479262,4.73828126 22.9047425,4.68531439 L22.9047425,4.68531439 L20.0450499,4.47686411 C19.4700943,4.42389723 19.0487869,4.50591046 18.4930255,4.65797665 L18.4930255,4.65797665 L16.3286063,5.18294672 C15.7728449,5.33501291 15.6553271,5.91465847 15.7595869,6.46995635 L15.7595869,6.46995635 L16.6525567,11.2164718 C16.7572527,11.7721968 16.808292,12.3317662 16.7664136,12.4603391 C16.7245352,12.5889119 16.2298465,12.7960807 15.6671054,12.9212363 L15.6671054,12.9212363 L14.9268173,13.0856899 C14.3640761,13.2108455 13.4418787,13.2163985 12.8778289,13.0989316 L12.8778289,13.0989316 L11.9822416,12.9118389 C11.4177556,12.7939449 10.9217582,12.5923291 10.8794435,12.4641834 C10.8375651,12.3356106 10.8881682,11.7751869 10.992428,11.219889 L10.992428,11.219889 L11.8797268,6.47251927 C11.9839866,5.91679423 11.8655962,5.33800298 11.3098349,5.18636394 L11.3098349,5.18636394 L9.14454319,4.66395678 C8.58878181,4.51231774 8.1670382,4.43201312 7.59251878,4.48498 L7.59251878,4.48498 L4.73282617,4.69599319 C4.15830674,4.74938722 4.12995157,4.95612889 4.66957232,5.15560898 L4.66957232,5.15560898 L9.14759683,6.78092317 C9.68721758,6.98083041 10.242979,7.39858528 10.3821374,7.70997924 C10.5217321,8.02094606 10.4135462,8.68345915 10.1426453,9.18237294 L10.1426453,9.18237294 L8.77452886,11.6282333 C8.5036279,12.1271471 8.75716791,12.7119317 9.23571598,13.0275972 L9.23571598,13.0275972 L13.0946369,15.5738516 C13.3825509,15.8664508 13.3655378,16.3350368 13.0571208,16.6075599 L13.0571208,16.6075599 L11.4753384,18.0047748 C11.0469572,18.3836589 10.2700254,18.89197 9.74916272,19.1354468 L9.74916272,19.1354468 L8.07708,19.9158539 C7.55621729,20.1589035 6.76358116,20.0662114 6.31644189,19.7095393 L6.31644189,19.7095393 L5.93735505,19.4071156 C5.44135764,19.0115726 5.06270703,18.4925827 4.82495981,17.8582616 C4.62603737,17.3273114 4.64697657,16.4678812 4.87120055,15.9471826 L4.87120055,15.9471826 L5.36030661,14.7631563 C5.58496683,14.2424578 5.36109069,13.7259911 4.96542697,13.3146435 L4.96542697,13.3146435 L1.32811267,9.53263776 C0.932885182,9.12129017 0.404170269,8.53481017 0.153772283,8.22982349 L0.153772283,8.22982349 L0.0591096292,7.90006198 L0.000218116713,7.71638653 C-0.00545291783,7.50494618 0.0717603986,6.83089998 0.159443317,6.64850598 C0.247126236,6.46696629 0.583025974,5.93473462 0.906274943,5.46657579 L0.906274943,5.46657579 L1.68451537,4.33846679 C2.00776434,3.87030796 2.56657936,3.12578164 2.92603571,2.6836791 L2.92603571,2.6836791 L4.06678611,1.28261982 C4.42624246,0.840944428 4.73291456,0.481282261 4.7791553,0.484272327 C4.78133647,0.481282261 5.24679753,0.566285552 5.81346475,0.672646455 L5.81346475,0.672646455 L7.54138535,0.997709292 C8.10805257,1.10407019 8.73317507,1.2211099 8.93078882,1.25741784 C9.12796632,1.29415293 9.73869312,1.18138475 10.287911,1.00710664 L10.287911,1.00710664 L11.53074,0.612845144 C12.0795217,0.438139887 12.9127275,0.208331994 13.3816785,0.10154394 L13.3816785,0.10154394 L13.816167,0.107951223 Z" id="Combined-Shape" fill="url(#linearGradient-7)"></path>
            </g>
          </g>
        </g>
      </g>
    </g>
  </g>
</svg>