<?xml version="1.0" encoding="utf-8"?>
<svg width="32px" height="32px" viewBox="0 0 32 32" version="1.1" xmlns:xlink="http://www.w3.org/1999/xlink" xmlns="http://www.w3.org/2000/svg">
  <desc>Created with Lunacy</desc>
  <g id="Group">
    <path d="M16 0L16 0Q16.4098 0 16.8169 0.018652Q17.224 0.037304 17.6275 0.07457Q18.031 0.111836 18.43 0.16764Q18.8291 0.223444 19.223 0.297672Q19.6169 0.3719 20.0047 0.4644Q20.3926 0.556901 20.7736 0.667485Q21.1546 0.77807 21.5281 0.906513Q21.9015 1.03496 22.2666 1.18099Q22.6317 1.32703 22.9877 1.49037Q23.3438 1.65371 23.6899 1.83401Q24.0361 2.01431 24.3718 2.21122Q24.7074 2.40811 25.0318 2.62121Q25.3563 2.83431 25.6688 3.06316Q25.9814 3.29202 26.2815 3.53617Q26.5815 3.78032 26.8684 4.03927Q27.1554 4.29821 27.4286 4.57143Q27.7018 4.84464 27.9607 5.13157Q28.2197 5.41849 28.4638 5.71854Q28.708 6.01859 28.9368 6.33115Q29.1657 6.64372 29.3788 6.96815Q29.5919 7.29259 29.7888 7.62824Q29.9857 7.96389 30.166 8.31007Q30.3463 8.65625 30.5096 9.01225Q30.673 9.36826 30.819 9.73335Q30.965 10.0985 31.0935 10.4719Q31.2219 10.8454 31.3325 11.2264Q31.4431 11.6074 31.5356 11.9953Q31.6281 12.3831 31.7023 12.777Q31.7766 13.1709 31.8324 13.57Q31.8882 13.9691 31.9254 14.3725Q31.9627 14.776 31.9813 15.1831Q32 15.5902 32 16L32 16Q32 16.4098 31.9813 16.8169Q31.9627 17.224 31.9254 17.6275Q31.8882 18.031 31.8324 18.43Q31.7766 18.8291 31.7023 19.223Q31.6281 19.6169 31.5356 20.0047Q31.4431 20.3926 31.3325 20.7736Q31.2219 21.1546 31.0935 21.5281Q30.965 21.9015 30.819 22.2666Q30.673 22.6317 30.5096 22.9877Q30.3463 23.3438 30.166 23.6899Q29.9857 24.0361 29.7888 24.3718Q29.5919 24.7074 29.3788 25.0318Q29.1657 25.3563 28.9368 25.6688Q28.708 25.9814 28.4638 26.2815Q28.2197 26.5815 27.9607 26.8684Q27.7018 27.1554 27.4286 27.4286Q27.1554 27.7018 26.8684 27.9607Q26.5815 28.2197 26.2815 28.4638Q25.9814 28.708 25.6688 28.9368Q25.3563 29.1657 25.0318 29.3788Q24.7074 29.5919 24.3718 29.7888Q24.0361 29.9857 23.6899 30.166Q23.3438 30.3463 22.9877 30.5096Q22.6317 30.673 22.2666 30.819Q21.9015 30.965 21.5281 31.0935Q21.1546 31.2219 20.7736 31.3325Q20.3926 31.4431 20.0047 31.5356Q19.6169 31.6281 19.223 31.7023Q18.8291 31.7766 18.43 31.8324Q18.031 31.8882 17.6275 31.9254Q17.224 31.9627 16.8169 31.9813Q16.4098 32 16 32L16 32Q15.5902 32 15.1831 31.9813Q14.776 31.9627 14.3725 31.9254Q13.9691 31.8882 13.57 31.8324Q13.1709 31.7766 12.777 31.7023Q12.3831 31.6281 11.9953 31.5356Q11.6074 31.4431 11.2264 31.3325Q10.8454 31.2219 10.4719 31.0935Q10.0985 30.965 9.73336 30.819Q9.36826 30.673 9.01226 30.5096Q8.65625 30.3463 8.31007 30.166Q7.96389 29.9857 7.62824 29.7888Q7.29259 29.5919 6.96815 29.3788Q6.64372 29.1657 6.33115 28.9368Q6.01859 28.708 5.71854 28.4638Q5.41849 28.2197 5.13157 27.9607Q4.84464 27.7018 4.57143 27.4286Q4.29821 27.1554 4.03927 26.8684Q3.78032 26.5815 3.53617 26.2815Q3.29202 25.9814 3.06316 25.6688Q2.83431 25.3563 2.62121 25.0318Q2.40811 24.7074 2.21122 24.3718Q2.01431 24.0361 1.83401 23.6899Q1.65371 23.3438 1.49037 22.9877Q1.32703 22.6317 1.18099 22.2666Q1.03496 21.9015 0.906513 21.5281Q0.77807 21.1546 0.667485 20.7736Q0.556901 20.3926 0.4644 20.0047Q0.3719 19.6169 0.297672 19.223Q0.223444 18.8291 0.16764 18.43Q0.111836 18.031 0.07457 17.6275Q0.037304 17.224 0.018652 16.8169Q0 16.4098 0 16L0 16Q0 15.5902 0.018652 15.1831Q0.037304 14.776 0.07457 14.3725Q0.111836 13.9691 0.16764 13.57Q0.223444 13.1709 0.297672 12.777Q0.3719 12.3831 0.4644 11.9953Q0.556901 11.6074 0.667485 11.2264Q0.77807 10.8454 0.906513 10.4719Q1.03496 10.0985 1.18099 9.73336Q1.32703 9.36826 1.49037 9.01226Q1.65371 8.65625 1.83401 8.31007Q2.01431 7.96389 2.21122 7.62824Q2.40811 7.29259 2.62121 6.96815Q2.83431 6.64372 3.06316 6.33115Q3.29202 6.01859 3.53617 5.71854Q3.78032 5.41849 4.03927 5.13157Q4.29821 4.84464 4.57143 4.57143Q4.84464 4.29821 5.13157 4.03927Q5.41849 3.78032 5.71854 3.53617Q6.01859 3.29202 6.33115 3.06316Q6.64372 2.83431 6.96815 2.62121Q7.29259 2.40811 7.62824 2.21122Q7.96389 2.01431 8.31007 1.83401Q8.65625 1.65371 9.01225 1.49037Q9.36826 1.32703 9.73335 1.18099Q10.0985 1.03496 10.4719 0.906513Q10.8454 0.77807 11.2264 0.667485Q11.6074 0.556901 11.9953 0.4644Q12.3831 0.3719 12.777 0.297672Q13.1709 0.223444 13.57 0.16764Q13.9691 0.111836 14.3725 0.07457Q14.776 0.037304 15.1831 0.018652Q15.5902 0 16 0Z" id="Rectangle" fill="#0076FF" stroke="none" />
    <g id="$" fill="#FFFFFF" transform="translate(10 3)">
      <path d="M11.38 15.6Q11.38 17.22 10.25 18.33Q9.12 19.44 7.22 19.72L7.22 21.94L5.18 21.94L5.18 19.76Q3.84 19.66 2.69 19.24Q1.54 18.82 0.68 18.1L1.56 16.22Q3.3 17.58 5.32 17.72L5.32 13.56Q3.98 13.22 3.06 12.81Q2.14 12.4 1.52 11.59Q0.9 10.78 0.9 9.48Q0.9 8.4 1.44 7.51Q1.98 6.62 2.95 6.03Q3.92 5.44 5.18 5.28L5.18 3.06L7.22 3.06L7.22 5.26Q8.38 5.4 9.4 5.82Q10.42 6.24 11.12 6.88L10.24 8.76Q8.78 7.56 7.08 7.32L7.08 11.66Q8.42 12 9.3 12.39Q10.18 12.78 10.78 13.56Q11.38 14.34 11.38 15.6ZM3.48 9.34Q3.48 10.04 3.96 10.47Q4.44 10.9 5.32 11.2L5.32 7.34Q4.46 7.52 3.97 8.04Q3.48 8.56 3.48 9.34ZM7.08 17.62Q7.92 17.44 8.36 16.95Q8.8 16.46 8.8 15.68Q8.8 15.06 8.36 14.68Q7.92 14.3 7.08 14.04L7.08 17.62Z" />
    </g>
  </g>
</svg>
