<?xml version="1.0" encoding="UTF-8"?>
<svg width="259px" height="248px" viewBox="0 0 259 248" version="1.1" xmlns="http://www.w3.org/2000/svg" xmlns:xlink="http://www.w3.org/1999/xlink">
    <!-- Generator: Sketch 53.2 (72643) - https://sketchapp.com -->
    <title>metamask-fox</title>
    <desc>Created with Sketch.</desc>
    <g id="metamask-fox" stroke="none" stroke-width="1" fill="none" fill-rule="evenodd">
        <g id="full-color/logos/ethereum" transform="translate(5.500000, 0.000000)">
            <g id="Group-7" transform="translate(54.250000, 23.250000)">
                <polygon id="Fill-1" fill="#8C8C8C" points="66.7120517 -0.000166528926 19.5508217 74.183474 1.75578833 102.17199 66.7120517 74.183474"></polygon>
                <polygon id="Fill-2" fill="#393939" points="1.75666667 102.171824 22.5960033 113.850498 66.71293 138.570051 66.71293 113.850498 66.71293 74.1833074"></polygon>
                <polygon id="Fill-3" fill="#343434" points="66.7120517 -0.000166528926 66.7120517 74.183474 131.668315 102.17199 131.668315 102.17199 113.875038 74.183474"></polygon>
                <polygon id="Fill-4" fill="#151515" points="66.7120517 113.850164 66.7120517 138.571383 110.830735 113.850164 131.668315 102.171491 66.7120517 74.1846397"></polygon>
                <polygon id="Fill-5" fill="#8C8C8C" points="1.75666667 113.850164 20.26315 138.571383 66.71293 200.621726 66.71293 150.230074 66.71293 150.228408 45.89643 138.571383 1.75842333 113.850164"></polygon>
                <polygon id="Fill-6" fill="#343434" points="87.5417267 138.570717 66.71293 150.229407 66.71293 200.622726 113.190817 138.570717 131.669193 113.901122 131.669193 113.871147"></polygon>
            </g>
        </g>
    </g>
</svg>