<?xml version="1.0" encoding="UTF-8"?>
<svg width="897px" height="241px" viewBox="0 0 897 241" version="1.1" xmlns="http://www.w3.org/2000/svg" xmlns:xlink="http://www.w3.org/1999/xlink">
    <!-- Generator: Sketch 53.2 (72643) - https://sketchapp.com -->
    <title>metamask-logo-horizontal</title>
    <desc>Created with Sketch.</desc>
    <g id="metamask-logo-horizontal" stroke="none" stroke-width="1" fill="none" fill-rule="evenodd">
        <g></g>
        <text id="ETH-Wallet" font-family="Poppins-SemiBold, Poppins" font-size="110" font-weight="500" fill="#000000">
            <tspan x="244" y="158">ETH Wallet</tspan>
        </text>
        <g id="full-color/logos/ethereum">
            <g id="Group-7" transform="translate(52.718750, 22.593750)">
                <polygon id="Fill-1" fill="#8C8C8C" points="64.8290502 -0.000161828512 18.998984 72.0895856 1.70622979 99.2881037 64.8290502 72.0895856"></polygon>
                <polygon id="Fill-2" fill="#393939" points="1.70708333 99.2879418 21.9582129 110.636975 64.8299038 134.6588 64.8299038 110.636975 64.8299038 72.0894238"></polygon>
                <polygon id="Fill-3" fill="#343434" points="64.8290502 -0.000161828512 64.8290502 72.0895856 127.951871 99.2881037 127.951871 99.2881037 110.660824 72.0895856"></polygon>
                <polygon id="Fill-4" fill="#151515" points="64.8290502 110.636652 64.8290502 134.660094 107.702448 110.636652 127.951871 99.2876182 64.8290502 72.0907184"></polygon>
                <polygon id="Fill-5" fill="#8C8C8C" points="1.70708333 110.636652 19.6912063 134.660094 64.8299038 194.959016 64.8299038 145.989709 64.8299038 145.98809 44.6009662 134.660094 1.70879042 110.636652"></polygon>
                <polygon id="Fill-6" fill="#343434" points="85.0707908 134.659447 64.8299038 145.989061 64.8299038 194.959987 109.995915 134.659447 127.952724 110.686171 127.952724 110.657042"></polygon>
            </g>
        </g>
    </g>
</svg>