<?xml version="1.0" encoding="UTF-8"?>
<svg width="337px" height="124px" viewBox="0 0 337 124" version="1.1"
  xmlns="http://www.w3.org/2000/svg"
  xmlns:xlink="http://www.w3.org/1999/xlink">
  <!-- Generator: Sketch 58 (84663) - https://sketch.com -->
  <title>connect-hardware-wallet</title>
  <desc>Created with Sketch.</desc>
  <defs>
    <linearGradient x1="98.6824484%" y1="50.2223998%" x2="1.31755164%" y2="50.2223998%" id="linearGradient-1">
      <stop stop-color="#BF14A2" offset="0%"></stop>
      <stop stop-color="#F73A1C" offset="100%"></stop>
    </linearGradient>
    <linearGradient x1="0%" y1="50.7055163%" x2="100%" y2="50.7055163%" id="linearGradient-2">
      <stop stop-color="#FF5500" offset="0%"></stop>
      <stop stop-color="#FF5500" offset="40.9877232%"></stop>
      <stop stop-color="#FF4530" offset="49.4339923%"></stop>
      <stop stop-color="#FF2000" offset="57.2365274%"></stop>
      <stop stop-color="#FF2000" offset="100%"></stop>
    </linearGradient>
    <polygon id="path-3" points="0 0.0991457964 36.4070203 0.0991457964 36.4070203 26.3748336 0 26.3748336"></polygon>
    <linearGradient x1="50%" y1="100%" x2="96.7673826%" y2="100%" id="linearGradient-5">
      <stop stop-color="#FFFFFF" offset="0%"></stop>
      <stop stop-color="#F4F4F4" offset="100%"></stop>
    </linearGradient>
    <linearGradient x1="98.6824484%" y1="50.2223998%" x2="1.31755164%" y2="50.2223998%" id="linearGradient-6">
      <stop stop-color="#BF14A2" offset="0%"></stop>
      <stop stop-color="#F73A1C" offset="100%"></stop>
    </linearGradient>
    <linearGradient x1="98.6824484%" y1="50.2223998%" x2="1.31755164%" y2="50.2223998%" id="linearGradient-7">
      <stop stop-color="#BF14A2" offset="0%"></stop>
      <stop stop-color="#F73A1C" offset="100%"></stop>
    </linearGradient>
    <linearGradient x1="50%" y1="1.05046453%" x2="50%" y2="100%" id="linearGradient-8">
      <stop stop-color="#A7A7A7" offset="0%"></stop>
      <stop stop-color="#000000" offset="100%"></stop>
    </linearGradient>
    <linearGradient x1="98.6824484%" y1="50.2223998%" x2="1.31755164%" y2="50.2223998%" id="linearGradient-9">
      <stop stop-color="#BF14A2" offset="0%"></stop>
      <stop stop-color="#F73A1C" offset="100%"></stop>
    </linearGradient>
    <linearGradient x1="98.6824484%" y1="50.2223998%" x2="1.31755164%" y2="50.2223998%" id="linearGradient-10">
      <stop stop-color="#BF14A2" offset="0%"></stop>
      <stop stop-color="#F73A1C" offset="100%"></stop>
    </linearGradient>
    <linearGradient x1="98.6824484%" y1="50.2223998%" x2="1.31755164%" y2="50.2223998%" id="linearGradient-11">
      <stop stop-color="#BF14A2" offset="0%"></stop>
      <stop stop-color="#F73A1C" offset="100%"></stop>
    </linearGradient>
    <linearGradient x1="98.6824484%" y1="50.2223998%" x2="1.31755164%" y2="50.2223998%" id="linearGradient-12">
      <stop stop-color="#BF14A2" offset="0%"></stop>
      <stop stop-color="#F73A1C" offset="100%"></stop>
    </linearGradient>
    <linearGradient x1="98.6824484%" y1="50.2223998%" x2="1.31755164%" y2="50.2223998%" id="linearGradient-13">
      <stop stop-color="#BF14A2" offset="0%"></stop>
      <stop stop-color="#F73A1C" offset="100%"></stop>
    </linearGradient>
    <linearGradient x1="98.6824484%" y1="50.2223998%" x2="1.31755164%" y2="50.2223998%" id="linearGradient-14">
      <stop stop-color="#BF14A2" offset="0%"></stop>
      <stop stop-color="#F73A1C" offset="100%"></stop>
    </linearGradient>
  </defs>
  <g id="MM-Assets" stroke="none" stroke-width="1" fill="none" fill-rule="evenodd">
    <g id="Artboard" transform="translate(-122.000000, -78.000000)">
      <g id="connect-hardware-wallet" transform="translate(122.000000, 80.000000)">
        <path d="M190.863354,0 L316.714286,0 C321.684848,1.67459087e-14 325.714286,4.02943725 325.714286,9 L325.714286,108.074534 L325.714286,108.074534 L181.863354,108.074534 L181.863354,9 C181.863354,4.02943725 185.892791,9.13077564e-16 190.863354,0 Z" id="Rectangle" stroke="url(#linearGradient-1)" stroke-width="3"></path>
        <g id="Full-Color/logos/brave" transform="translate(225.838509, 30.186335)">
          <g id="Group-2" transform="translate(4.500000, 0.000000)">
            <path d="M46.8922739,17.45325 L45.1953009,12.93525 L46.3742325,10.339875 C46.5256864,10.00575 46.4528279,9.6136875 46.1906519,9.354375 L42.983155,6.1723125 C41.5804846,4.7818125 39.487666,4.3036875 37.602523,4.9449375 L36.7058466,5.2498125 L32.0211187,-1.24344979e-14 L25.1293701,-1.24344979e-14 L20.7616511,-1.24344979e-14 L14.7952385,-1.24344979e-14 L10.1704214,5.313375 L9.29841365,5.0124375 C7.39605991,4.356 5.27799899,4.8391875 3.86614961,6.251625 L0.601857451,9.4933125 C0.392460855,9.700875 0.335091924,10.0125 0.456714057,10.2785625 L1.688425,12.972375 L5.73689307e-05,17.488125 L1.0929355,21.5595 L6.07026392,40.1169375 C6.64337954,42.2566875 7.96401232,44.130375 9.80096548,45.4134375 C9.80096548,45.4134375 15.8442086,49.5928125 21.807709,53.3885625 C22.332061,53.7226875 22.880508,53.9668125 23.4691132,53.9580534 C24.0577184,53.9656875 24.6061654,53.7226875 25.1293701,53.386875 C31.8271927,49.0820625 37.1263608,45.3965625 37.1263608,45.3965625 C38.9615929,44.11125 40.279931,42.2353125 40.8507518,40.095 L45.804559,21.53025 L46.8922739,17.45325 Z" id="Fill-1" fill="url(#linearGradient-2)"></path>
            <g id="face" transform="translate(5.190223, 8.208000)">
              <g id="Group-5" transform="translate(0.000000, 0.034370)">
                <mask id="mask-4" fill="white">
                  <use xlink:href="#path-3"></use>
                </mask>
                <g id="Clip-4"></g>
              </g>
              <path d="M18.5071605,25.022417 C18.5738085,25.022417 19.2035168,25.2547669 19.9056185,25.5400004 L19.9056185,25.5400004 L20.5571597,25.8044181 C21.2592615,26.089089 22.3888294,26.597671 23.0662254,26.9346628 L23.0662254,26.9346628 L24.9886742,27.8910671 C25.6660703,28.2274963 25.7149071,28.8575979 25.0966899,29.2907928 L25.0966899,29.2907928 L23.4569204,30.4396031 C22.8387031,30.8727979 21.8665622,31.6244191 21.2971819,32.1116227 C20.7272269,32.5988263 19.7970283,33.393767 19.2293716,33.8792828 C18.6617149,34.3647985 17.7418582,34.3670489 17.1851179,33.8854712 C16.6278031,33.403331 15.7056482,32.6140162 15.1351187,32.131876 C14.5651638,31.6491731 13.5907247,30.9031778 12.9696347,30.4744837 L12.9696347,30.4744837 L11.3356107,29.3436763 C10.7145207,28.913857 10.7587611,28.2809424 11.4327099,27.9371995 L11.4327099,27.9371995 L13.3655006,26.9515406 C14.0394493,26.607235 15.1649954,26.0919019 15.8670971,25.807231 L15.8670971,25.807231 L16.5186383,25.5416882 C17.2201655,25.2564547 17.8492993,25.022417 17.9165218,25.022417 L17.9165218,25.022417 Z M18.769156,0.133178208 C19.3867986,0.272700708 20.4841917,0.574249337 21.2075518,0.803223762 L21.2075518,0.803223762 L22.8455977,1.32080723 C23.5689579,1.54978166 24.3733297,1.69718043 24.6330269,1.64879762 C24.8932987,1.60041482 25.7160562,1.44457719 26.4623984,1.30336692 L26.4623984,1.30336692 L28.7376217,0.873547603 C29.4839639,0.732337331 30.0970102,0.619819185 30.1406761,0.62319473 C30.1607854,0.619819185 30.564695,1.0918328 31.0392744,1.67411421 L31.0392744,1.67411421 L32.5440244,3.51772401 C33.0186038,4.09888023 33.7551786,5.07835069 34.1820702,5.69495012 L34.1820702,5.69495012 L35.2087935,7.17906446 C35.6351106,7.7951013 36.3010156,8.91634462 36.3423833,9.17119822 C36.3849001,9.42605182 36.4130531,9.86262222 36.4061585,10.1411046 L36.4061585,10.1411046 L36.3285941,10.3830186 L36.2050655,10.8167761 C35.8752731,11.2195911 35.1800659,11.9925907 34.6595224,12.5354908 L34.6595224,12.5354908 L29.8746588,17.522295 C29.3541153,18.0646324 29.0604032,18.7448569 29.3574462,19.4300924 L29.3574462,19.4300924 L30.0027838,20.9895416 C30.2992523,21.6742145 30.3285544,22.8072722 30.0441515,23.5678949 C29.7551522,24.3420197 29.2575907,25.0261301 28.6054749,25.5476517 L28.6054749,25.5476517 L28.1061898,25.9465285 C27.5172747,26.4174169 26.4738894,26.5411869 25.7873006,26.2210728 L25.7873006,26.2210728 L23.5833216,25.1960325 C22.8973073,24.8770435 21.8734569,24.2081231 21.3080983,23.7096678 L21.3080983,23.7096678 L19.2230515,21.8722464 C18.8162692,21.5133136 18.7932871,20.8967141 19.1719164,20.5107769 L19.1719164,20.5107769 L24.2498012,17.1521103 C24.8795095,16.7357931 25.2128657,15.965589 24.8549202,15.3090456 L24.8549202,15.3090456 L23.0495635,12.0887937 C22.691618,11.4316878 22.5485547,10.5591095 22.731262,10.1489809 C22.9145439,9.73885226 23.6453732,9.18751335 24.3566678,8.9236583 L24.3566678,8.9236583 L30.2511064,6.77681209 C30.9618264,6.51295704 30.923906,6.24066313 30.1672219,6.17090188 L30.1672219,6.17090188 L26.4007975,5.8963576 C25.6435388,5.82659635 25.0886462,5.93461377 24.3566678,6.13489607 L24.3566678,6.13489607 L21.5059693,6.82632007 C20.7739909,7.02660237 20.6192113,7.79003799 20.756529,8.52140593 L20.756529,8.52140593 L21.9326356,14.7729141 C22.070528,15.5048446 22.1377505,16.2418385 22.0825935,16.4111783 C22.0274366,16.5805181 21.3758954,16.8533746 20.6347242,17.0182137 L20.6347242,17.0182137 L19.6597105,17.2348111 C18.9185393,17.3996502 17.7039378,17.4069639 16.9610429,17.2522514 L16.9610429,17.2522514 L15.781489,17.0058367 C15.0380195,16.8505616 14.3847547,16.5850188 14.3290232,16.4162416 C14.2738663,16.2469018 14.3405142,15.5087827 14.477832,14.7774148 L14.477832,14.7774148 L15.6464694,8.52478147 C15.7837872,7.79285094 15.6278585,7.03054051 14.8958801,6.8308208 L14.8958801,6.8308208 L12.0440325,6.14277234 C11.3120541,5.94305263 10.7565869,5.83728558 9.99990008,5.90704683 L9.99990008,5.90704683 L6.23347836,6.18496665 C5.47679425,6.25529049 5.43944841,6.5275844 6.15016842,6.79031427 L6.15016842,6.79031427 L12.0480544,8.93097198 C12.7587744,9.19426444 13.4907528,9.74447817 13.6740347,10.1546068 C13.8578911,10.5641729 13.7154024,11.4367511 13.358606,12.093857 L13.358606,12.093857 L11.5566965,15.3152341 C11.1999002,15.9723401 11.5338309,16.7425442 12.1641137,17.1582988 L12.1641137,17.1582988 L17.2465949,20.5119021 C17.6257988,20.8972767 17.6033913,21.5144387 17.1971835,21.8733716 L17.1971835,21.8733716 L15.1138603,23.7136059 C14.5496509,24.2126239 13.526375,24.8821068 12.8403607,25.2027835 L12.8403607,25.2027835 L10.6381054,26.2306368 C9.95209107,26.5507509 8.90813128,26.4286687 8.31921615,25.9589055 L8.31921615,25.9589055 L7.81993104,25.5605912 C7.16666616,25.0396322 6.6679556,24.3560845 6.35482511,23.5206373 C6.0928297,22.821337 6.12040817,21.6894045 6.41572756,21.0036064 L6.41572756,21.0036064 L7.05991603,19.4441571 C7.35580997,18.758359 7.06094871,18.0781346 6.53983065,17.5363597 L6.53983065,17.5363597 L1.74922156,12.5551814 C1.22867804,12.0134066 0.532321818,11.2409695 0.202529348,10.8392797 L0.202529348,10.8392797 L0.0778517068,10.4049597 L0.000287275671,10.1630457 C-0.00718189177,9.88456326 0.0945136957,8.99679509 0.209998515,8.75656885 C0.325483335,8.51746779 0.767887868,7.81647975 1.19363041,7.19988031 L1.19363041,7.19988031 L2.21863001,5.71407821 C2.64437255,5.09747877 3.38037282,4.11688314 3.85380312,3.53460174 L3.85380312,3.53460174 L5.35625488,1.68930416 C5.82968519,1.10758534 6.23359478,0.633883954 6.29449722,0.637822089 C6.29736998,0.633883954 6.91041626,0.745839508 7.65675846,0.885924599 L7.65675846,0.885924599 L9.93255632,1.31405614 C10.6788985,1.45414123 11.5022306,1.60829109 11.7625023,1.6561113 C12.0221995,1.7044941 12.8265714,1.55597015 13.5499316,1.32643314 L13.5499316,1.32643314 L15.1868283,0.807161897 C15.9096139,0.57706229 17.007007,0.27438848 17.6246497,0.133740798 L17.6246497,0.133740798 L18.1969028,0.142179659 Z" id="Combined-Shape" fill="url(#linearGradient-5)"></path>
            </g>
          </g>
        </g>
        <rect id="Rectangle" stroke="url(#linearGradient-6)" stroke-width="3" fill-opacity="0.5" fill="url(#linearGradient-6)" x="172.919255" y="108.074534" width="161.73913" height="11.9254658" rx="2"></rect>
        <rect id="Rectangle" stroke="url(#linearGradient-7)" stroke-width="3" x="188.571429" y="7.45341615" width="129.689441" height="93.9130435"></rect>
        <circle id="Oval" stroke="url(#linearGradient-8)" stroke-width="3" cx="56.4931095" cy="66.5916149" r="23.4241799"></circle>
        <path d="M1.97357826,24.2585404 C2.88199568,26.2172457 4.28134705,27.1993886 6.17163238,27.2049689 C9.00706036,27.2133395 103.980614,27.2133395 106.800757,27.2049689 C108.680852,27.1993886 110.309103,28.1573903 111.68551,30.0789742" id="Line-3" stroke="url(#linearGradient-9)" stroke-width="3" stroke-linecap="square"></path>
        <g id="Full-Color/logos/ethereum" transform="translate(39.814453, 49.736086)">
          <g id="Group-7" transform="translate(5.500000, 0.000000)">
            <polygon id="Fill-1" fill="#8C8C8C" points="11.1397733 -2.72727273e-05 3.26465333 12.1491545 0.293186667 16.7328818 11.1397733 12.1491545"></polygon>
            <polygon id="Fill-2" fill="#393939" points="0.293333333 16.7328545 3.77314667 18.6454909 11.13992 22.6938545 11.13992 18.6454909 11.13992 12.1491273"></polygon>
            <polygon id="Fill-3" fill="#343434" points="11.1397733 -2.72727273e-05 11.1397733 12.1491545 21.98636 16.7328818 21.98636 16.7328818 19.0151867 12.1491545"></polygon>
            <polygon id="Fill-4" fill="#151515" points="11.1397733 18.6454364 11.1397733 22.6940727 18.50684 18.6454364 21.98636 16.7328 11.1397733 12.1493455"></polygon>
            <polygon id="Fill-5" fill="#8C8C8C" points="0.293333333 18.6454364 3.3836 22.6940727 11.13992 32.8561636 11.13992 24.6034364 11.13992 24.6031636 7.66392 22.6940727 0.293626667 18.6454364"></polygon>
            <polygon id="Fill-6" fill="#343434" points="14.6179733 22.6939636 11.13992 24.6033273 11.13992 32.8563273 18.9009333 22.6939636 21.9865067 18.6537818 21.9865067 18.6488727"></polygon>
          </g>
        </g>
        <rect id="Rectangle" stroke="url(#linearGradient-10)" stroke-width="4" x="2" y="15.4161491" width="109.664596" height="91.4037267" rx="10"></rect>
        <polyline id="Path-2" stroke="url(#linearGradient-11)" stroke-width="3" points="113.664596 45.6041343 136.083075 45.6041343 136.083075 75.765722 113.664596 75.765722"></polyline>
        <path d="M146.459627,60.7639752 L165.838509,60.7639752" id="Line" stroke="url(#linearGradient-12)" stroke-width="2" stroke-linecap="round"></path>
        <path d="M156.735916,52.7897661 L165.498229,60.4014946" id="Line-2" stroke="url(#linearGradient-13)" stroke-width="2" stroke-linecap="round"></path>
        <path d="M156.735916,60.4418915 L165.838509,68.2173913" id="Line-2" stroke="url(#linearGradient-13)" stroke-width="2" stroke-linecap="round" transform="translate(161.366460, 64.490683) scale(1, -1) translate(-161.366460, -64.490683) "></path>
        <path d="M113.664596,52.4403144 L136.083075,52.4403144" id="Path-3" stroke="url(#linearGradient-14)" stroke-width="3"></path>
      </g>
    </g>
  </g>
</svg>
